<svg xmlns="http://www.w3.org/2000/svg" xmlns:xlink="http://www.w3.org/1999/xlink" width="28.889" height="29.94" viewBox="0 0 28.889 29.94">
  <defs>
    <linearGradient id="linear-gradient" x1="0.5" x2="0.5" y2="1" gradientUnits="objectBoundingBox">
      <stop offset="0" stop-color="#199b97"/>
      <stop offset="1" stop-color="#344da0"/>
    </linearGradient>
  </defs>
  <path id="Path_36102" data-name="Path 36102" d="M12.1,1.521a3.409,3.409,0,0,1,5.181,0l.632.739a1.549,1.549,0,0,0,1.538.5l.947-.226a3.409,3.409,0,0,1,4.191,3.044l.077.971a1.553,1.553,0,0,0,.951,1.309l.9.372a3.409,3.409,0,0,1,1.6,4.929l-.508.831a1.549,1.549,0,0,0,0,1.616l.508.831a3.409,3.409,0,0,1-1.6,4.927l-.9.373a1.549,1.549,0,0,0-.951,1.309l-.077.971A3.409,3.409,0,0,1,20.4,27.06l-.947-.226a1.55,1.55,0,0,0-1.537.5l-.633.74a3.409,3.409,0,0,1-5.181,0l-.632-.74a1.549,1.549,0,0,0-1.538-.5l-.947.226a3.409,3.409,0,0,1-4.191-3.044l-.077-.971a1.549,1.549,0,0,0-.951-1.309l-.9-.372a3.409,3.409,0,0,1-1.6-4.929l.508-.831a1.549,1.549,0,0,0,0-1.616l-.508-.831a3.409,3.409,0,0,1,1.6-4.927l.9-.373a1.551,1.551,0,0,0,.951-1.309l.077-.971A3.409,3.409,0,0,1,8.984,2.533l.947.226a1.549,1.549,0,0,0,1.537-.5l.633-.74ZM15.87,2.728a1.549,1.549,0,0,0-2.355,0l-.632.74A3.409,3.409,0,0,1,9.5,4.568l-.947-.227A1.549,1.549,0,0,0,6.646,5.725L6.569,6.7A3.409,3.409,0,0,1,4.478,9.574l-.9.373a1.549,1.549,0,0,0-.728,2.24l.508.831a3.409,3.409,0,0,1,0,3.558l-.508.831a1.549,1.549,0,0,0,.728,2.24l.9.372A3.409,3.409,0,0,1,6.569,22.9l.077.971a1.549,1.549,0,0,0,1.905,1.385l.947-.227a3.409,3.409,0,0,1,3.384,1.1l.632.74a1.549,1.549,0,0,0,2.355,0l.632-.74a3.409,3.409,0,0,1,3.384-1.1l.947.227a1.549,1.549,0,0,0,1.905-1.385l.077-.971a3.409,3.409,0,0,1,2.091-2.878l.9-.373a1.549,1.549,0,0,0,.728-2.24l-.508-.831a3.409,3.409,0,0,1,0-3.558l.508-.831a1.549,1.549,0,0,0-.729-2.24l-.9-.372A3.409,3.409,0,0,1,22.815,6.7l-.077-.971a1.549,1.549,0,0,0-1.905-1.385l-.947.227a3.409,3.409,0,0,1-3.384-1.1l-.632-.74Zm-3,7.693a.93.93,0,0,1,0,1.314l-1.24,1.24a.93.93,0,1,1-1.314-1.314l1.24-1.24a.93.93,0,0,1,1.314,0Zm6.2,0a.93.93,0,0,1,0,1.314L11.63,19.172a.93.93,0,0,1-1.314-1.314l7.438-7.438a.93.93,0,0,1,1.314,0Zm0,6.2a.93.93,0,0,1,0,1.314l-1.24,1.24a.93.93,0,0,1-1.314-1.314l1.24-1.24a.93.93,0,0,1,1.314,0Z" transform="translate(-0.248 0.173)" stroke="rgba(0,0,0,0)" stroke-miterlimit="10" stroke-width="1" fill-rule="evenodd" fill="url(#linear-gradient)"/>
</svg>
