<svg xmlns="http://www.w3.org/2000/svg" xmlns:xlink="http://www.w3.org/1999/xlink" width="31.642" height="31.642" viewBox="0 0 31.642 31.642">
  <defs>
    <linearGradient id="linear-gradient" x1="0.5" x2="0.5" y2="1" gradientUnits="objectBoundingBox">
      <stop offset="0" stop-color="#199b97"/>
      <stop offset="1" stop-color="#344da0"/>
    </linearGradient>
  </defs>
  <g id="Group_48113" data-name="Group 48113" transform="translate(-337 -374.851)">
    <g id="application" transform="translate(337 374.851)">
      <path id="Path_895" data-name="Path 895" d="M19.29,9H6.021A1.022,1.022,0,0,0,5,10.021V31.456a1.022,1.022,0,0,0,1.021,1.021H19.29a1.022,1.022,0,0,0,1.021-1.021V10.021A1.022,1.022,0,0,0,19.29,9ZM6.021,31.456V10.021H19.29V31.456Z" transform="translate(-2.959 -4.917)" fill="url(#linear-gradient)"/>
      <path id="Path_896" data-name="Path 896" d="M19,5h3.062V6.021H19Z" transform="translate(-9.814 -2.959)" fill="url(#linear-gradient)"/>
      <path id="Path_897" data-name="Path 897" d="M15,5h1.021V6.021H15Z" transform="translate(-7.855 -2.959)" fill="url(#linear-gradient)"/>
      <path id="Path_898" data-name="Path 898" d="M15,57h5.1v1.021H15Z" transform="translate(-7.855 -28.42)" fill="url(#linear-gradient)"/>
      <path id="Path_899" data-name="Path 899" d="M20.228,34.062H13.211l-.128-1.531A1.533,1.533,0,0,0,11.552,31H10.531a1.531,1.531,0,0,0,0,3.062h1.657l.349,4.188a1.529,1.529,0,1,0,2.077,1.426,1.514,1.514,0,0,0-.094-.51h2.74a1.5,1.5,0,0,0-.094.51,1.531,1.531,0,1,0,2.167-1.389l.876-3.064Zm-9.7-1.021a.51.51,0,1,1,0-1.021h1.021a.524.524,0,0,1,.512.553l.039.468Zm8.656,2.041-.875,3.062h-4.76L13.3,35.083Zm-5.594,4.593a.51.51,0,1,1-.51-.51A.511.511,0,0,1,13.593,39.676Zm5.1.51a.51.51,0,1,1,.51-.51A.511.511,0,0,1,18.7,40.186Z" transform="translate(-4.917 -15.689)" fill="url(#linear-gradient)"/>
      <path id="Path_900" data-name="Path 900" d="M12.062,13H9v3.062h3.062Zm-1.021,2.041H10.021V14.021h1.021Z" transform="translate(-4.917 -6.876)" fill="url(#linear-gradient)"/>
      <path id="Path_901" data-name="Path 901" d="M20.062,13H17v3.062h3.062Zm-1.021,2.041H18.021V14.021h1.021Z" transform="translate(-8.834 -6.876)" fill="url(#linear-gradient)"/>
      <path id="Path_902" data-name="Path 902" d="M25,16.062h3.062V13H25Zm1.021-2.041h1.021v1.021H26.021Z" transform="translate(-12.751 -6.876)" fill="url(#linear-gradient)"/>
      <path id="Path_903" data-name="Path 903" d="M12.062,21H9v3.062h3.062Zm-1.021,2.041H10.021V22.021h1.021Z" transform="translate(-4.917 -10.793)" fill="url(#linear-gradient)"/>
      <path id="Path_904" data-name="Path 904" d="M20.062,21H17v3.062h3.062Zm-1.021,2.041H18.021V22.021h1.021Z" transform="translate(-8.834 -10.793)" fill="url(#linear-gradient)"/>
      <path id="Path_905" data-name="Path 905" d="M25,24.062h3.062V21H25Zm1.021-2.041h1.021v1.021H26.021Z" transform="translate(-12.751 -10.793)" fill="url(#linear-gradient)"/>
      <path id="Path_906" data-name="Path 906" d="M42.531,49a1.531,1.531,0,1,0,1.531,1.531A1.533,1.533,0,0,0,42.531,49Zm0,2.041a.51.51,0,1,1,.51-.51A.511.511,0,0,1,42.531,51.041Z" transform="translate(-20.586 -24.503)" fill="url(#linear-gradient)"/>
      <path id="Path_907" data-name="Path 907" d="M44,45v1.021a2.555,2.555,0,0,1,2.552,2.552h1.021A3.576,3.576,0,0,0,44,45Z" transform="translate(-22.055 -22.544)" fill="url(#linear-gradient)"/>
      <path id="Path_908" data-name="Path 908" d="M44,41v1.021a4.6,4.6,0,0,1,4.593,4.593h1.021A5.621,5.621,0,0,0,44,41Z" transform="translate(-22.055 -20.586)" fill="url(#linear-gradient)"/>
      <path id="Path_909" data-name="Path 909" d="M31.111,11.207H30.6V4.573A1.533,1.533,0,0,0,29.07,3.041H20.342A2.557,2.557,0,0,0,17.842,1H3.552A2.555,2.555,0,0,0,1,3.552V30.09a2.555,2.555,0,0,0,2.552,2.552h14.29a2.557,2.557,0,0,0,2.5-2.041H29.07A1.533,1.533,0,0,0,30.6,29.07V21.414h.51a1.533,1.533,0,0,0,1.531-1.531V12.738A1.533,1.533,0,0,0,31.111,11.207ZM19.373,30.09a1.533,1.533,0,0,1-1.531,1.531H3.552A1.533,1.533,0,0,1,2.021,30.09V3.552A1.533,1.533,0,0,1,3.552,2.021h14.29a1.533,1.533,0,0,1,1.531,1.531ZM29.58,4.573v6.635H25.709L27.9,9.016a2.237,2.237,0,0,0,.66-1.593V7.336a2.255,2.255,0,0,0-2.253-2.253h-.088a2.234,2.234,0,0,0-1.232.366,2.234,2.234,0,0,0-1.232-.366h-.088a2.255,2.255,0,0,0-2.253,2.253v.088a2.237,2.237,0,0,0,.66,1.593l2.191,2.191h-.3a1.533,1.533,0,0,0-1.531,1.531v.51H20.394s-2.169-6.89,0-9.186,8.676,0,8.676,0a.511.511,0,0,1,.51.51Zm-4.593,5.913L22.8,8.295a1.241,1.241,0,0,1-.361-.871V7.336A1.233,1.233,0,0,1,23.667,6.1h.088a1.241,1.241,0,0,1,.871.361l.361.361.361-.361a1.241,1.241,0,0,1,.871-.361h.088a1.233,1.233,0,0,1,1.232,1.232v.088a1.241,1.241,0,0,1-.361.871Zm-4.593,8.887v-5.1h2.041v5.1Zm9.186,9.7a.511.511,0,0,1-.51.51H20.394V20.394H29.07a.511.511,0,0,1,.51.51Zm2.041-9.186a.511.511,0,0,1-.51.51h-.6a1.529,1.529,0,0,0-1.437-1.021H25.107l6.124-3.062-6.755-3.378v6.44H23.456V12.738a.511.511,0,0,1,.51-.51h7.145a.511.511,0,0,1,.51.51ZM25.5,18.037V14.585l3.452,1.726Z" transform="translate(-1 -1)" fill="url(#linear-gradient)"/>
    </g>
  </g>
</svg>
