<svg xmlns="http://www.w3.org/2000/svg" xmlns:xlink="http://www.w3.org/1999/xlink" width="149.35" height="140.848" viewBox="0 0 149.35 140.848">
  <defs>
    <linearGradient id="linear-gradient" x1="0.5" y1="-0.373" x2="0.5" y2="1.312" gradientUnits="objectBoundingBox">
      <stop offset="0" stop-color="#199b97"/>
      <stop offset="1" stop-color="#344da0"/>
    </linearGradient>
    <filter id="Path_36135" x="0" y="0" width="149.35" height="140.848" filterUnits="userSpaceOnUse">
      <feOffset dy="15" input="SourceAlpha"/>
      <feGaussianBlur stdDeviation="20" result="blur"/>
      <feFlood flood-color="#b7c2d6" flood-opacity="0.122"/>
      <feComposite operator="in" in2="blur"/>
      <feComposite in="SourceGraphic"/>
    </filter>
  </defs>
  <g transform="matrix(1, 0, 0, 1, 0, 0)" filter="url(#Path_36135)">
    <path id="Path_36135-2" data-name="Path 36135" d="M2.436,6.268a.325.325,0,0,0-.312.336v2.69a.449.449,0,0,0,.127.295,1.143,1.143,0,0,0,.468.319,5.034,5.034,0,0,1,3.15,4.767,5.034,5.034,0,0,1-3.15,4.767,1.142,1.142,0,0,0-.468.319.458.458,0,0,0-.127.295v2.69a.325.325,0,0,0,.312.336h15.3V21.4a.939.939,0,1,1,1.873,0V23.08h7.806a.325.325,0,0,0,.312-.336v-2.69a.449.449,0,0,0-.127-.295,1.142,1.142,0,0,0-.468-.319,5.034,5.034,0,0,1-3.15-4.767,5.034,5.034,0,0,1,3.15-4.767,1.143,1.143,0,0,0,.468-.319.458.458,0,0,0,.127-.295V6.6a.325.325,0,0,0-.312-.336H19.609V7.949a.939.939,0,1,1-1.873,0s3.825-1.261,0-1.681S2.436,6.268,2.436,6.268ZM.25,6.6A2.275,2.275,0,0,1,2.436,4.25H27.414A2.275,2.275,0,0,1,29.6,6.6v2.69a2.753,2.753,0,0,1-1.856,2.519,3.109,3.109,0,0,0,0,5.722A2.751,2.751,0,0,1,29.6,20.054v2.69A2.274,2.274,0,0,1,27.414,25.1H2.436A2.274,2.274,0,0,1,.25,22.744v-2.69a2.752,2.752,0,0,1,1.857-2.519,3.109,3.109,0,0,0,0-5.722A2.749,2.749,0,0,1,.25,9.294ZM18.672,12.32a.975.975,0,0,1,.937,1.009v2.69a.939.939,0,1,1-1.873,0v-2.69A.975.975,0,0,1,18.672,12.32Z" transform="translate(59.75 40.75)" fill-rule="evenodd" fill="url(#linear-gradient)"/>
  </g>
</svg>
