<svg xmlns="http://www.w3.org/2000/svg" width="31.905" height="22.458" viewBox="0 0 31.905 22.458">
  <g id="_20" data-name="20" transform="translate(0.306 -4.659)">
    <g id="Group_35148" data-name="Group 35148">
      <path id="Path_36120" data-name="Path 36120" d="M9.127,6.291A4.423,4.423,0,0,0,4.789,9.848L2.363,21.974A2.248,2.248,0,0,0,6.239,23.92l3.933-4.37a5.1,5.1,0,0,1,3.794-1.69H18.5a5.1,5.1,0,0,1,3.793,1.689l3.935,4.372A2.248,2.248,0,0,0,30.1,21.974L27.674,9.848a4.423,4.423,0,0,0-4.337-3.556H9.127ZM2.787,9.446a6.465,6.465,0,0,1,6.339-5.2H23.336a6.465,6.465,0,0,1,6.34,5.2L32.1,21.575a4.29,4.29,0,0,1-7.4,3.711l-3.933-4.371A3.062,3.062,0,0,0,18.494,19.9H13.965a3.062,3.062,0,0,0-2.276,1.014l-3.933,4.37a4.29,4.29,0,0,1-7.394-3.71Zm9.7,3.99a1.021,1.021,0,0,1,1.021-1.021h5.444a1.021,1.021,0,1,1,0,2.041H13.509A1.021,1.021,0,0,1,12.488,13.437Z" transform="translate(-0.585 0.409)" fill="#313131" fill-rule="evenodd"/>
    </g>
  </g>
</svg>
