<svg xmlns="http://www.w3.org/2000/svg" width="18" height="14.482" viewBox="0 0 18 14.482">
  <path id="bars" d="M17.759,79.464H.241A.243.243,0,0,1,0,79.22v-.976A.243.243,0,0,1,.241,78H17.759a.243.243,0,0,1,.241.244v.976A.243.243,0,0,1,17.759,79.464Zm0,6.509H.241A.243.243,0,0,1,0,85.729v-.976a.243.243,0,0,1,.241-.244H17.759a.243.243,0,0,1,.241.244v.976A.243.243,0,0,1,17.759,85.973Zm0,6.509H.241A.243.243,0,0,1,0,92.238v-.976a.243.243,0,0,1,.241-.244H17.759a.243.243,0,0,1,.241.244v.976A.243.243,0,0,1,17.759,92.482Z" transform="translate(0 -78)" fill="#4c4b4c"/>
</svg>
