<svg id="notification" xmlns="http://www.w3.org/2000/svg" width="19.939" height="24" viewBox="0 0 19.939 24">
  <path id="Shape" d="M19.44,0H.5A.5.5,0,0,0,.071.757L1.784,3.619A8.527,8.527,0,0,1,2.991,7.993V10.5a6.979,6.979,0,1,0,13.957,0V7.993a8.527,8.527,0,0,1,1.207-4.374L19.868.757A.5.5,0,0,0,19.44,0ZM9.969,16.5a6,6,0,0,1-5.981-6V7.993a9.516,9.516,0,0,0-1.35-4.888L1.379,1H18.56L17.3,3.105a9.524,9.524,0,0,0-1.349,4.888V10.5A6,6,0,0,1,9.969,16.5Z" transform="translate(19.939 21) rotate(180)" fill="#484848"/>
  <path id="Path" d="M1.994,0A2,2,0,0,1,3.988,2V4a.5.5,0,1,1-1,0V2A1,1,0,1,0,1,2V4A.5.5,0,1,1,0,4V2A2,2,0,0,1,1.994,0Z" transform="translate(7.976)" fill="#484848"/>
  <path id="Path-2" data-name="Path" d="M.337.246A.5.5,0,1,1,1.2.752a1.5,1.5,0,1,0,2.59,0A.5.5,0,1,1,4.649.246a2.493,2.493,0,1,1-4.313,0Z" transform="translate(7.475 20.001)" fill="#484848"/>
</svg>
