<svg xmlns="http://www.w3.org/2000/svg" width="22.255" height="18.531" viewBox="0 0 22.255 18.531">
  <path id="Path_36130" data-name="Path 36130" d="M.25,2.963A.713.713,0,0,1,.963,2.25H4.28a2.614,2.614,0,0,1,2.514,1.9l.8,2.785,11.979-1.49A2.613,2.613,0,0,1,22.44,8.613L21,14.946a2.613,2.613,0,0,1-2.548,2.034h-7.5a2.613,2.613,0,0,1-2.514-1.9L5.424,4.537a1.188,1.188,0,0,0-1.144-.862H.963A.713.713,0,0,1,.25,2.963ZM7.986,8.319l1.822,6.374a1.188,1.188,0,0,0,1.142.862h7.5a1.188,1.188,0,0,0,1.157-.925L21.05,8.3a1.188,1.188,0,0,0-1.3-1.443Zm1.768,11.75a.713.713,0,0,1,.713-.713h.95a.713.713,0,1,1,0,1.425h-.95A.713.713,0,0,1,9.753,20.069Zm7.6,0a.713.713,0,0,1,.713-.713h.95a.713.713,0,1,1,0,1.425h-.95A.713.713,0,0,1,17.356,20.069Z" transform="translate(-0.25 -2.25)" fill="#484848" fill-rule="evenodd"/>
</svg>
