<svg xmlns="http://www.w3.org/2000/svg" xmlns:xlink="http://www.w3.org/1999/xlink" width="33.733" height="28.242" viewBox="0 0 33.733 28.242">
  <defs>
    <linearGradient id="linear-gradient" x1="0.5" x2="0.5" y2="1" gradientUnits="objectBoundingBox">
      <stop offset="0" stop-color="#199b97"/>
      <stop offset="1" stop-color="#344da0"/>
    </linearGradient>
  </defs>
  <path id="Path_36907" data-name="Path 36907" d="M.25,3.3A1.048,1.048,0,0,1,1.3,2.25H6.175a3.842,3.842,0,0,1,3.7,2.788l1.169,4.094,17.61-2.191A3.842,3.842,0,0,1,32.871,11.6l-2.115,9.31A3.842,3.842,0,0,1,27.01,23.9H15.981a3.842,3.842,0,0,1-3.7-2.787l-4.43-15.5A1.746,1.746,0,0,0,6.173,4.346H1.3A1.048,1.048,0,0,1,.25,3.3Zm11.372,7.874,2.678,9.37a1.746,1.746,0,0,0,1.679,1.267h11.03a1.746,1.746,0,0,0,1.7-1.359l2.117-9.308A1.746,1.746,0,0,0,28.909,9.02Zm2.6,17.273A1.048,1.048,0,0,1,15.268,27.4h1.4a1.048,1.048,0,0,1,0,2.1h-1.4A1.048,1.048,0,0,1,14.22,28.445Zm11.176,0A1.048,1.048,0,0,1,26.445,27.4h1.4a1.048,1.048,0,0,1,0,2.1h-1.4A1.048,1.048,0,0,1,25.4,28.445Z" transform="translate(0.25 -1.75)" stroke="rgba(0,0,0,0)" stroke-miterlimit="10" stroke-width="1" fill-rule="evenodd" fill="url(#linear-gradient)"/>
</svg>
