<svg xmlns="http://www.w3.org/2000/svg" xmlns:xlink="http://www.w3.org/1999/xlink" width="19.236" height="20.662" viewBox="0 0 19.236 20.662">
  <defs>
    <linearGradient id="linear-gradient" x1="0.5" x2="0.5" y2="1" gradientUnits="objectBoundingBox">
      <stop offset="0" stop-color="#199b97"/>
      <stop offset="1" stop-color="#344da0"/>
    </linearGradient>
  </defs>
  <g id="_31" data-name="31" transform="translate(-0.614 0.25)">
    <g id="Group_35084" data-name="Group 35084" transform="translate(1.174 0.25)">
      <path id="Path_36114" data-name="Path 36114" d="M10.232,1.5c-.215,0-.428.008-.638.023a.872.872,0,0,0-.758.789l-.079.546a2.593,2.593,0,0,1-1.391,1.87q-.167.09-.329.19a2.589,2.589,0,0,1-2.315.271l-.515-.2a.874.874,0,0,0-1.063.261A8.59,8.59,0,0,0,2.5,6.358a.871.871,0,0,0,.3,1.05l.437.345a2.59,2.59,0,0,1,.924,2.137q-.006.192,0,.383a2.586,2.586,0,0,1-.924,2.137l-.437.345a.872.872,0,0,0-.3,1.05,8.591,8.591,0,0,0,.64,1.107.873.873,0,0,0,1.063.261l.515-.2a2.587,2.587,0,0,1,2.315.271c.107.067.218.13.329.19A2.591,2.591,0,0,1,8.756,17.3l.079.546a.872.872,0,0,0,.758.789,8.706,8.706,0,0,0,1.277,0,.874.874,0,0,0,.759-.789l.079-.546a2.59,2.59,0,0,1,1.39-1.87c.112-.06.222-.123.329-.19a2.591,2.591,0,0,1,2.316-.271l.514.2a.874.874,0,0,0,1.063-.261,8.494,8.494,0,0,0,.64-1.107.871.871,0,0,0-.3-1.05l-.438-.345a2.587,2.587,0,0,1-.923-2.137q.006-.192,0-.383a2.584,2.584,0,0,1,.924-2.137l.437-.345a.873.873,0,0,0,.3-1.05,8.57,8.57,0,0,0-.64-1.107.873.873,0,0,0-1.063-.261l-.514.2a2.588,2.588,0,0,1-2.316-.271q-.161-.1-.329-.19a2.593,2.593,0,0,1-1.391-1.87l-.079-.546a.874.874,0,0,0-.759-.789q-.319-.023-.638-.023ZM9.5.277a9.962,9.962,0,0,1,1.461,0,2.125,2.125,0,0,1,1.908,1.861l.079.546a1.34,1.34,0,0,0,.742.944q.2.109.4.23a1.339,1.339,0,0,0,1.188.172l.514-.206a2.128,2.128,0,0,1,2.564.72,9.831,9.831,0,0,1,.734,1.269,2.125,2.125,0,0,1-.657,2.581L18,8.737a1.341,1.341,0,0,0-.446,1.113q.007.231,0,.462A1.339,1.339,0,0,0,18,11.424l.438.344a2.124,2.124,0,0,1,.657,2.581,9.823,9.823,0,0,1-.734,1.269,2.128,2.128,0,0,1-2.564.72l-.514-.206a1.339,1.339,0,0,0-1.188.172q-.2.121-.4.229a1.346,1.346,0,0,0-.742.945l-.079.546a2.125,2.125,0,0,1-1.908,1.861,9.961,9.961,0,0,1-1.462,0,2.124,2.124,0,0,1-1.908-1.861l-.08-.546a1.343,1.343,0,0,0-.742-.945q-.2-.108-.4-.229a1.34,1.34,0,0,0-1.188-.172l-.515.206a2.126,2.126,0,0,1-2.564-.72,9.819,9.819,0,0,1-.735-1.269,2.125,2.125,0,0,1,.658-2.581l.437-.344a1.339,1.339,0,0,0,.446-1.113q-.007-.231,0-.462a1.339,1.339,0,0,0-.446-1.113l-.437-.344a2.126,2.126,0,0,1-.658-2.581,9.685,9.685,0,0,1,.735-1.269,2.127,2.127,0,0,1,2.564-.72l.514.206a1.339,1.339,0,0,0,1.188-.172q.2-.121.4-.23a1.342,1.342,0,0,0,.742-.944l.079-.546A2.128,2.128,0,0,1,9.5.277Zm.73,7.085a2.719,2.719,0,1,0,2.719,2.719A2.719,2.719,0,0,0,10.232,7.362ZM6.258,10.081a3.974,3.974,0,1,1,3.974,3.974,3.974,3.974,0,0,1-3.974-3.974Z" transform="translate(-1.174 -0.25)" stroke="rgba(0,0,0,0)" stroke-miterlimit="10" stroke-width="1" fill-rule="evenodd" fill="url(#linear-gradient)"/>
    </g>
  </g>
</svg>
