<svg xmlns="http://www.w3.org/2000/svg" xmlns:xlink="http://www.w3.org/1999/xlink" width="17.302" height="17.301" viewBox="0 0 17.302 17.301">
  <defs>
    <linearGradient id="linear-gradient" x1="0.5" x2="0.5" y2="1" gradientUnits="objectBoundingBox">
      <stop offset="0" stop-color="#199b97"/>
      <stop offset="1" stop-color="#344da0"/>
    </linearGradient>
  </defs>
  <g id="_6" data-name="6" transform="translate(-1.339 -1.25)">
    <g id="Group_37676" data-name="Group 37676" transform="translate(1.339 1.25)">
      <path id="Path_37056" data-name="Path 37056" d="M3.489,2.462a.894.894,0,0,0-.933.948A15.56,15.56,0,0,0,16.481,17.335a.894.894,0,0,0,.948-.933V13.526a1.01,1.01,0,0,0-.691-.958l-2.8-.933a1.01,1.01,0,0,0-1.034.244l-.448.448a1.4,1.4,0,0,1-1.778.172A11.019,11.019,0,0,1,7.37,9.2a1.394,1.394,0,0,1,.184-1.757l.457-.457a1.01,1.01,0,0,0,.244-1.034l-.933-2.8a1.01,1.01,0,0,0-.957-.69ZM1.35,3.53a2.1,2.1,0,0,1,2.14-2.28H6.365A2.222,2.222,0,0,1,8.473,2.769l.933,2.8a2.222,2.222,0,0,1-.537,2.274L8.41,8.3a.182.182,0,0,0-.031.229A9.817,9.817,0,0,0,11.367,11.5a.186.186,0,0,0,.237-.028l.448-.448a2.222,2.222,0,0,1,2.274-.537l2.8.933a2.222,2.222,0,0,1,1.519,2.108V16.4a2.105,2.105,0,0,1-2.28,2.14A16.773,16.773,0,0,1,1.35,3.53ZM12.58,1.856a.606.606,0,0,1,.606-.606A5.454,5.454,0,0,1,18.641,6.7a.606.606,0,1,1-1.212,0,4.242,4.242,0,0,0-4.242-4.242A.606.606,0,0,1,12.58,1.856Zm0,3.232a.606.606,0,0,1,.606-.606A2.222,2.222,0,0,1,15.408,6.7a.606.606,0,0,1-1.212,0,1.01,1.01,0,0,0-1.01-1.01A.606.606,0,0,1,12.58,5.088Z" transform="translate(-1.339 -1.25)" fill-rule="evenodd" fill="url(#linear-gradient)"/>
    </g>
  </g>
</svg>
