<svg xmlns="http://www.w3.org/2000/svg" xmlns:xlink="http://www.w3.org/1999/xlink" width="19.763" height="18.72" viewBox="0 0 19.763 18.72">
  <defs>
    <linearGradient id="linear-gradient" x1="0.5" x2="0.5" y2="1" gradientUnits="objectBoundingBox">
      <stop offset="0" stop-color="#199b97"/>
      <stop offset="1" stop-color="#344da0"/>
    </linearGradient>
  </defs>
  <g id="التقييمات" transform="translate(0 0)">
    <g id="_26-star" data-name="26-star" transform="translate(0)">
      <path id="Shape" d="M9.881,18.72a1.481,1.481,0,0,1-1.334-.815L6.294,13.413l-5.023-.736a1.47,1.47,0,0,1-1.2-1,1.419,1.419,0,0,1,.373-1.482L4.079,6.666l-.845-4.96A1.416,1.416,0,0,1,3.55.537,1.523,1.523,0,0,1,4.7,0a1.5,1.5,0,0,1,.693.172L9.881,2.493,14.37.172A1.494,1.494,0,0,1,15.063,0a1.523,1.523,0,0,1,1.15.537,1.416,1.416,0,0,1,.316,1.169l-.845,4.96,3.633,3.525a1.419,1.419,0,0,1,.373,1.482,1.47,1.47,0,0,1-1.2,1l-5.023.736-2.254,4.493A1.481,1.481,0,0,1,9.881,18.72ZM4.7,1.255a.217.217,0,0,0-.164.077.2.2,0,0,0-.045.167l.954,5.6-4.1,3.982a.2.2,0,0,0-.053.212.21.21,0,0,0,.171.143l5.683.833,2.55,5.08a.214.214,0,0,0,.381,0l2.55-5.08,5.683-.833a.21.21,0,0,0,.171-.143.2.2,0,0,0-.053-.213L14.317,7.1l.955-5.6a.2.2,0,0,0-.045-.167.218.218,0,0,0-.164-.076.215.215,0,0,0-.1.024L9.881,3.909,4.8,1.28A.215.215,0,0,0,4.7,1.255Z" transform="translate(19.762 18.72) rotate(180)" fill="url(#linear-gradient)"/>
    </g>
  </g>
</svg>
