<svg xmlns="http://www.w3.org/2000/svg" xmlns:xlink="http://www.w3.org/1999/xlink" width="20.8" height="17.68" viewBox="0 0 20.8 17.68">
  <defs>
    <linearGradient id="linear-gradient" x1="0.5" x2="0.5" y2="1" gradientUnits="objectBoundingBox">
      <stop offset="0" stop-color="#199b97"/>
      <stop offset="1" stop-color="#344da0"/>
    </linearGradient>
  </defs>
  <g id="المفضلة" transform="translate(0 -1)">
    <path id="Shape" d="M10.4,0A3.8,3.8,0,0,0,8.452.767a19.22,19.22,0,0,0-2.2,1.744C4.934,3.695,3.36,5.292,1.576,7.258a6.22,6.22,0,0,0,.262,8.549,6.268,6.268,0,0,0,8.419.472l.143-.116.143.116a6.268,6.268,0,0,0,8.42-.472,6.219,6.219,0,0,0,.261-8.549c-1.784-1.966-3.358-3.563-4.677-4.747a19.22,19.22,0,0,0-2.2-1.744A3.8,3.8,0,0,0,10.4,0ZM6.309,16.311a4.91,4.91,0,0,1-3.515-1.472,4.842,4.842,0,0,1-.221-6.655C4.325,6.253,5.865,4.689,7.15,3.535A17.923,17.923,0,0,1,9.187,1.916,2.6,2.6,0,0,1,10.4,1.369a2.6,2.6,0,0,1,1.212.547,17.763,17.763,0,0,1,2.037,1.619c1.283,1.152,2.823,2.716,4.578,4.648a4.843,4.843,0,0,1-.222,6.655,4.926,4.926,0,0,1-6.617.371l-.988-.8-.989.8A4.947,4.947,0,0,1,6.309,16.311Z" transform="translate(20.8 18.68) rotate(180)" fill="url(#linear-gradient)"/>
  </g>
</svg>
