<svg xmlns="http://www.w3.org/2000/svg" xmlns:xlink="http://www.w3.org/1999/xlink" width="16" height="16" viewBox="0 0 16 16">
  <defs>
    <linearGradient id="linear-gradient" x1="0.5" x2="0.5" y2="1" gradientUnits="objectBoundingBox">
      <stop offset="0" stop-color="#199b97"/>
      <stop offset="1" stop-color="#344da0"/>
    </linearGradient>
  </defs>
  <g id="الرسائل" transform="translate(0.5 -5)">
    <path id="comment-alt-lines" d="M2,0H14a2,2,0,0,1,2,2v9a2,2,0,0,1-2,2H11v2.625a.374.374,0,0,1-.375.375.359.359,0,0,1-.222-.075L6.5,13H2a2,2,0,0,1-2-2V2A2,2,0,0,1,2,0ZM1,11a1,1,0,0,0,1,1H6.834l.266.2L10,14.375V12h4a1,1,0,0,0,1-1V2a1,1,0,0,0-1-1H2A1,1,0,0,0,1,2ZM7.25,7.5h4.5a.251.251,0,0,1,.25.25v.5a.251.251,0,0,1-.25.25H7.25A.251.251,0,0,1,7,8.25v-.5A.251.251,0,0,1,7.25,7.5Zm-3-3h7.5a.251.251,0,0,1,.25.25v.5a.251.251,0,0,1-.25.25H4.25A.251.251,0,0,1,4,5.25v-.5A.251.251,0,0,1,4.25,4.5Z" transform="translate(-0.5 5)" fill="url(#linear-gradient)"/>
  </g>
</svg>
