<svg xmlns="http://www.w3.org/2000/svg" xmlns:xlink="http://www.w3.org/1999/xlink" width="17.22" height="18.528" viewBox="0 0 17.22 18.528">
  <defs>
    <linearGradient id="linear-gradient" x1="0.5" x2="0.5" y2="1" gradientUnits="objectBoundingBox">
      <stop offset="0" stop-color="#199b97"/>
      <stop offset="1" stop-color="#344da0"/>
    </linearGradient>
  </defs>
  <g id="تصفح_المشاريع" data-name="تصفح المشاريع" transform="translate(1.568 -0.211)">
    <path id="Path_36098" data-name="Path 36098" d="M10.432,1.862a1.009,1.009,0,0,0-.967,0L2.656,5.577a.2.2,0,0,0,0,.355L9.465,9.647a1.009,1.009,0,0,0,.967,0l6.809-3.715a.2.2,0,0,0,0-.355L10.432,1.862ZM11.011.8l6.81,3.715a1.413,1.413,0,0,1,0,2.481l-1.427.778,1.427.778a1.413,1.413,0,0,1,0,2.481l-1.427.778,1.427.778a1.413,1.413,0,0,1,0,2.481l-6.81,3.715a2.221,2.221,0,0,1-2.127,0L2.074,15.07a1.413,1.413,0,0,1,0-2.481L3.5,11.811l-1.427-.778a1.413,1.413,0,0,1,0-2.481L3.5,7.773,2.074,6.995a1.413,1.413,0,0,1,0-2.481L8.884.8a2.221,2.221,0,0,1,2.127,0ZM4.766,8.463,2.656,9.615a.2.2,0,0,0,0,.354l6.809,3.715a1.009,1.009,0,0,0,.967,0l6.809-3.715a.2.2,0,0,0,0-.354L15.13,8.463l-4.118,2.247a2.221,2.221,0,0,1-2.127,0L4.767,8.463Zm0,4.038-2.11,1.152a.2.2,0,0,0,0,.355l6.809,3.715a1.009,1.009,0,0,0,.967,0l6.809-3.715a.2.2,0,0,0,0-.355L15.13,12.5l-4.118,2.247a2.221,2.221,0,0,1-2.127,0L4.767,12.5Z" transform="translate(-2.906 -0.317)" fill-rule="evenodd" fill="url(#linear-gradient)"/>
  </g>
</svg>
