<svg xmlns="http://www.w3.org/2000/svg" xmlns:xlink="http://www.w3.org/1999/xlink" width="15.75" height="18" viewBox="0 0 15.75 18">
  <defs>
    <linearGradient id="linear-gradient" x1="0.5" x2="0.5" y2="1" gradientUnits="objectBoundingBox">
      <stop offset="0" stop-color="#199b97"/>
      <stop offset="1" stop-color="#344da0"/>
    </linearGradient>
  </defs>
  <g id="حسابي" transform="translate(0 -3)">
    <path id="user" d="M4.725,10.125c1.009,0,1.494.563,3.15.563s2.138-.563,3.15-.563A4.726,4.726,0,0,1,15.75,14.85v1.463A1.688,1.688,0,0,1,14.063,18H1.688A1.688,1.688,0,0,1,0,16.313V14.85A4.726,4.726,0,0,1,4.725,10.125Zm-3.6,6.188a.564.564,0,0,0,.563.563H14.063a.564.564,0,0,0,.563-.563V14.85a3.6,3.6,0,0,0-3.6-3.6c-.689,0-1.375.563-3.15.563s-2.461-.563-3.15-.563a3.6,3.6,0,0,0-3.6,3.6ZM7.875,9a4.5,4.5,0,1,1,4.5-4.5A4.5,4.5,0,0,1,7.875,9Zm0-7.875A3.375,3.375,0,1,0,11.25,4.5,3.38,3.38,0,0,0,7.875,1.125Z" transform="translate(0 3)" fill="url(#linear-gradient)"/>
  </g>
</svg>
