<svg xmlns="http://www.w3.org/2000/svg" xmlns:xlink="http://www.w3.org/1999/xlink" width="16.156" height="11.475" viewBox="0 0 16.156 11.475">
  <defs>
    <linearGradient id="linear-gradient" x1="0.5" x2="0.5" y2="1" gradientUnits="objectBoundingBox">
      <stop offset="0" stop-color="#199b97"/>
      <stop offset="1" stop-color="#344da0"/>
    </linearGradient>
  </defs>
  <path id="Path_36135" data-name="Path 36135" d="M1.453,5.361a.179.179,0,0,0-.172.185V7.026a.247.247,0,0,0,.07.162.629.629,0,0,0,.258.175A2.771,2.771,0,0,1,3.343,9.988a2.771,2.771,0,0,1-1.734,2.624.628.628,0,0,0-.258.175.252.252,0,0,0-.07.162V14.43a.179.179,0,0,0,.172.185H9.875V13.69a.517.517,0,1,1,1.031,0v.925h4.3a.179.179,0,0,0,.172-.185V12.949a.247.247,0,0,0-.07-.162.628.628,0,0,0-.258-.175,2.771,2.771,0,0,1-1.734-2.624,2.771,2.771,0,0,1,1.734-2.624.629.629,0,0,0,.258-.175.252.252,0,0,0,.07-.162V5.546a.179.179,0,0,0-.172-.185h-4.3v.925a.517.517,0,1,1-1.031,0V5.361Zm-1.2.185a1.252,1.252,0,0,1,1.2-1.3H15.2a1.252,1.252,0,0,1,1.2,1.3V7.026a1.515,1.515,0,0,1-1.022,1.387,1.712,1.712,0,0,0,0,3.149,1.514,1.514,0,0,1,1.022,1.387V14.43a1.252,1.252,0,0,1-1.2,1.3H1.453a1.252,1.252,0,0,1-1.2-1.3V12.949a1.515,1.515,0,0,1,1.022-1.387,1.712,1.712,0,0,0,0-3.149A1.513,1.513,0,0,1,.25,7.026ZM10.39,8.692a.537.537,0,0,1,.516.555v1.481a.517.517,0,1,1-1.031,0V9.247A.537.537,0,0,1,10.39,8.692Z" transform="translate(-0.25 -4.25)" fill-rule="evenodd" fill="url(#linear-gradient)"/>
</svg>
