<svg xmlns="http://www.w3.org/2000/svg" xmlns:xlink="http://www.w3.org/1999/xlink" width="18.752" height="19.516" viewBox="0 0 18.752 19.516">
  <defs>
    <linearGradient id="linear-gradient" x1="0.5" x2="0.5" y2="1" gradientUnits="objectBoundingBox">
      <stop offset="0" stop-color="#199b97"/>
      <stop offset="1" stop-color="#344da0"/>
    </linearGradient>
  </defs>
  <g id="_6" data-name="6" transform="translate(-1.499 -0.25)">
  <g id="Group_35174" data-name="Group 35174" transform="translate(1.499 0.25)">
  <path id="Path_36102" data-name="Path 36102" d="M7.98,1.087a2.17,2.17,0,0,1,3.3,0l.4.47a.986.986,0,0,0,.979.318l.6-.144A2.17,2.17,0,0,1,15.93,3.669l.049.618a.989.989,0,0,0,.605.833l.573.237a2.17,2.17,0,0,1,1.019,3.137l-.323.529a.986.986,0,0,0,0,1.029l.323.529a2.17,2.17,0,0,1-1.019,3.136l-.573.237a.986.986,0,0,0-.605.833l-.049.618a2.17,2.17,0,0,1-2.668,1.938l-.6-.144a.986.986,0,0,0-.978.318l-.4.471a2.17,2.17,0,0,1-3.3,0l-.4-.471A.986.986,0,0,0,6.6,17.2l-.6.144A2.17,2.17,0,0,1,3.328,15.4l-.049-.618a.986.986,0,0,0-.605-.833L2.1,13.717A2.17,2.17,0,0,1,1.083,10.58l.323-.529a.986.986,0,0,0,0-1.029l-.323-.529A2.17,2.17,0,0,1,2.1,5.358l.573-.237a.987.987,0,0,0,.605-.833l.049-.618A2.17,2.17,0,0,1,6,1.731l.6.144a.986.986,0,0,0,.978-.318l.4-.471Zm2.4.768a.986.986,0,0,0-1.5,0l-.4.471a2.17,2.17,0,0,1-2.154.7l-.6-.144a.986.986,0,0,0-1.213.881l-.049.618A2.17,2.17,0,0,1,3.128,6.213l-.573.237a.986.986,0,0,0-.463,1.426l.323.529a2.17,2.17,0,0,1,0,2.264l-.323.529a.986.986,0,0,0,.463,1.426l.573.237a2.17,2.17,0,0,1,1.331,1.833l.049.618a.986.986,0,0,0,1.213.881l.6-.144a2.17,2.17,0,0,1,2.154.7l.4.471a.986.986,0,0,0,1.5,0l.4-.471a2.17,2.17,0,0,1,2.154-.7l.6.144a.986.986,0,0,0,1.213-.881l.049-.618a2.17,2.17,0,0,1,1.331-1.832l.573-.237a.986.986,0,0,0,.463-1.426l-.323-.529a2.17,2.17,0,0,1,0-2.264l.323-.529A.986.986,0,0,0,16.7,6.45l-.572-.237A2.17,2.17,0,0,1,14.8,4.381l-.049-.618a.986.986,0,0,0-1.213-.881l-.6.144a2.17,2.17,0,0,1-2.154-.7l-.4-.471Zm-1.909,4.9a.592.592,0,0,1,0,.836l-.789.789a.592.592,0,1,1-.836-.836l.789-.789a.592.592,0,0,1,.836,0Zm3.945,0a.592.592,0,0,1,0,.836L7.68,12.322a.592.592,0,0,1-.836-.836l4.734-4.734a.592.592,0,0,1,.836,0Zm0,3.945a.592.592,0,0,1,0,.836l-.789.789a.592.592,0,0,1-.836-.836l.789-.789a.592.592,0,0,1,.836,0Z" transform="translate(-0.253 0.269)" stroke="rgba(0,0,0,0)" stroke-miterlimit="10" stroke-width="1" fill-rule="evenodd" fill="url(#linear-gradient)"/>
  </g>
  </g>
</svg>
